<svg width="420" height="43" viewBox="0 0 420 43" fill="none" xmlns="http://www.w3.org/2000/svg">
<g clip-path="url(#clip0_3575_633)">
<path fill-rule="evenodd" clip-rule="evenodd" d="M108.196 0.529674H109.881C109.771 5.35333 109.859 10.7886 109.819 15.1101H107.87C106.898 11.8916 105.959 8.64157 104.045 6.21922C102.16 3.83506 99.6286 1.86602 95.4829 2.16388C91.7034 2.43932 88.6789 5.46143 89.1915 10.2073C89.2386 10.6423 89.5197 11.5094 89.7759 11.9707C91.3215 14.7793 94.5153 15.9615 97.9478 17.0725C101.34 18.1704 104.733 19.1563 107.287 20.9934C110.036 22.9689 111.911 25.6352 111.893 29.7538C111.866 35.6397 107.847 39.6502 103.72 41.5231C102.254 42.1873 100.409 42.5629 98.272 42.4364C95.0533 42.2453 92.9423 41.2673 90.7482 40.018C90.1114 39.6555 89.3445 39.0006 88.4122 39.0361C86.3174 39.1231 86.7195 42.0991 83.6794 41.3925C83.5721 36.4423 83.5454 31.4118 83.548 26.3535C84.1593 26.2059 85.0374 26.3284 85.7532 26.2889C87.1059 31.8296 88.8928 36.0206 93.0829 38.58C94.2682 39.3023 95.9582 40.0601 97.9478 40.213C103.877 40.6743 108.064 35.9284 106.38 30.4734C104.296 23.7228 95.9085 24.345 89.9708 21.0579C88.0049 19.9719 86.3868 18.4141 85.3662 16.2857C84.4083 14.2943 83.6794 11.3908 84.5221 8.50594C85.2479 6.01894 87.2255 3.41993 89.2568 2.09937C90.9005 1.03576 93.3914 0.0894417 95.7432 0.00779237C99.0357 -0.106922 101.6 1.06343 103.72 2.29708C104.308 2.63839 104.823 3.46338 105.731 3.40805C107.124 3.32114 107.251 1.25588 108.196 0.529674Z" fill="#ffc425"/>
<path fill-rule="evenodd" clip-rule="evenodd" d="M0.138492 0.596879C3.47023 0.592965 7.25695 0.610105 10.5161 0.596879C18.2564 10.4684 25.4853 20.8538 33.087 30.8648C33.2053 27.5304 33.1524 23.5674 33.1524 19.5529C33.1524 15.5965 33.3549 11.553 33.1524 8.18164C32.9353 4.56653 30.8804 2.86107 26.9897 2.88617C27.0302 2.16266 26.9086 1.27828 27.0558 0.662739C31.9271 0.612669 36.6057 0.75505 41.4549 0.728733C41.6019 1.34023 41.4796 2.22987 41.5189 2.94946C38.5488 3.0469 36.0938 4.09998 35.8119 7.00468C35.5537 9.66564 35.8119 12.6903 35.8119 15.6992V41.7841C34.8542 41.7419 33.7441 41.8631 32.8934 41.7168C24.9859 31.143 17.2783 20.366 9.28441 9.87914C9.17849 15.404 9.2184 23.1931 9.2184 29.6866C9.2184 32.4438 8.83853 35.5014 9.80285 37.1409C10.8901 38.9913 13.0065 39.3182 15.7039 39.5607C15.6922 40.3093 15.7654 41.1448 15.5758 41.7168C10.2278 41.6733 5.48001 41.8289 0.138492 41.7841C-0.00853441 41.1896 0.113713 40.3278 0.0731424 39.6252C2.96222 39.4684 5.92321 38.7252 6.29986 35.8336C6.45545 34.6355 6.29986 33.3333 6.29986 32.0431V9.68278C6.29986 8.3938 6.53913 6.97175 6.36453 6.02151C6.23706 5.32175 5.31063 4.32792 4.74385 3.93398C3.52392 3.07983 1.60371 3.03503 0.0071316 2.88617C-0.029556 1.98991 0.0914863 1.43767 0.0071316 0.793243C0.00579264 0.681228 0.0574766 0.623196 0.138492 0.596879Z" fill="#ffc425"/>
<path fill-rule="evenodd" clip-rule="evenodd" d="M43.0759 0.72873C52.9815 1.14251 64.0031 -0.460111 70.9018 2.68845C74.1433 4.16853 76.9285 6.74109 78.8788 9.68276C80.9252 12.7707 81.9927 16.6587 81.9927 21.5192C81.9927 30.9004 77.3666 37.0565 70.7718 40.0838C67.1255 41.7576 62.6668 41.784 57.5403 41.784C52.5774 41.784 47.808 41.6838 42.8797 41.7167C42.7745 41.1447 42.7745 40.1353 42.8797 39.5606C45.2759 39.4288 47.5876 39.442 48.2644 37.4018C48.8148 35.7425 48.5233 32.3935 48.5233 29.8183C48.5233 24.8813 48.5467 19.0824 48.588 14.521C48.6109 12.0472 48.7463 9.51271 48.5233 6.9388C48.3723 5.1992 47.5327 3.73356 46.1239 3.27889C45.2353 2.99156 43.7127 2.99953 43.0099 2.94946C42.8981 2.36819 42.9621 1.60514 42.9457 0.923744C43.002 0.870975 42.985 0.74452 43.0759 0.72873ZM55.3338 4.97503C54.9102 5.86467 54.9448 7.40279 54.9448 8.76815V33.8723C54.9448 35.3221 54.8624 36.8351 55.2697 37.7287C55.9373 39.1995 57.7332 39.4657 59.6161 39.6251C63.9482 39.9968 67.7381 39.2641 70.1225 37.2055C71.7178 35.8308 72.7651 33.9751 73.4314 31.7821C74.7513 27.4197 74.7062 20.6599 74.2735 15.5687C74.0251 12.6429 73.4876 10.521 72.3918 8.639C70.2742 4.99352 66.4973 2.85458 60.3928 3.14703C58.0928 3.25783 56.2131 3.13921 55.3338 4.97503Z" fill="#ffc425"/>
<path fill-rule="evenodd" clip-rule="evenodd" d="M153.079 0.646954C153.117 1.22417 153.053 2.16388 153.079 2.93624C150.485 3.05487 148.435 3.50954 147.695 5.4192C147.244 6.58955 147.371 8.3359 147.371 9.86606C147.371 14.612 147.372 19.3499 147.371 24.0524C147.371 27.1786 147.719 30.6975 147.112 33.2714C145.463 40.2776 137.785 44.0799 128.694 42.1611C123.864 41.1423 119.552 38.4075 118.121 33.9251C117.505 32.0009 117.537 29.5641 117.537 27.0613C117.537 22.0768 117.471 17.5022 117.471 12.3504C117.471 11.1695 117.531 9.92139 117.471 8.62323C117.351 6.02678 117.333 3.89971 115.331 3.19725C114.217 2.80439 112.957 3.0654 111.634 2.80439C111.622 1.95173 111.617 1.49179 111.634 0.646954H129.536C129.523 1.67628 129.538 2.05713 129.471 2.93624C126.805 2.87956 124.705 3.05744 123.956 4.83011C123.614 5.64728 123.725 6.92829 123.763 7.97084C123.893 11.3974 123.747 15.4884 123.763 18.4301C123.776 20.8314 123.794 23.2867 123.828 25.4257C123.868 27.8995 123.644 30.1848 123.956 32.4201C124.732 37.9317 129.891 41.0051 136.151 39.939C140.045 39.272 143.179 36.7904 144.323 33.2714C144.979 31.255 144.778 28.7826 144.778 26.3377C144.778 21.4731 144.712 16.577 144.712 12.1553C144.712 8.48746 144.938 4.86708 142.379 3.52533C141.321 2.97052 139.988 3.12343 138.421 2.8716V0.646954C143.363 0.72334 148.656 0.487434 153.079 0.646954Z" fill="#ffc425"/>
<path d="M167.123 0.360977H168.435L181.372 16.8023V0.360977H182.712V19.2589H181.667L168.462 2.46699V19.2589H167.123V0.360977Z" fill="white"/>
<path d="M187.047 9.86334V9.81057C187.047 4.65357 190.823 0.0368042 196.502 0.0368042C202.18 0.0368042 205.903 4.59945 205.903 9.75524C205.921 9.77368 205.921 9.79213 205.903 9.81057C205.903 14.9665 202.127 19.5833 196.448 19.5833C190.77 19.5833 187.047 15.0205 187.047 9.86334ZM204.457 9.86334V9.81057C204.457 5.13982 201.082 1.30595 196.448 1.30595C191.814 1.30595 188.493 5.08449 188.493 9.75524V9.81057C188.493 14.4815 191.868 18.314 196.502 18.314C201.135 18.314 204.457 14.5341 204.457 9.86334Z" fill="white"/>
<path d="M210.237 0.360977H218.112C220.416 0.360977 222.263 1.08975 223.389 2.2246C224.273 3.11546 224.808 4.38338 224.808 5.73296V5.78829C224.808 8.94602 222.478 10.7543 219.317 11.1866L225.505 19.2589H223.737L217.764 11.4291H211.63V19.2589H210.237V0.360977ZM217.952 10.1612C221.085 10.1612 223.415 8.56774 223.415 5.84092V5.78829C223.415 3.24988 221.433 1.65657 218.032 1.65657H211.63V10.1612H217.952Z" fill="white"/>
<path d="M234.124 1.65657H227.589V0.360977H242.053V1.65657H235.518V19.2589H234.124V1.65657Z" fill="white"/>
<path d="M245.88 0.360977H247.274V9.10811H259.273V0.360977H260.666V19.2589H259.273V10.4037H247.274V19.2589H245.88V0.360977Z" fill="white"/>
<path d="M273.195 0.360977H279.436C285.329 0.360977 289.4 4.43737 289.4 9.75523V9.81056C289.4 15.1286 285.329 19.2589 279.436 19.2589H273.195V0.360977ZM279.436 17.9635C284.66 17.9635 287.953 14.3733 287.953 9.86333V9.81056C287.953 5.32835 284.66 1.65657 279.436 1.65657H274.589V17.9635H279.436Z" fill="white"/>
<path d="M299.656 0.226547H300.995L309.727 19.2589H308.201L305.818 13.9674H294.755L292.371 19.2589H290.924L299.656 0.226547ZM305.228 12.6996L300.3 1.76452L295.344 12.6996H305.228Z" fill="white"/>
<path d="M313.286 0.360977H314.68V12.7799L326.626 0.360977H328.527L320.331 8.7035L328.875 19.2589H327.053L319.34 9.70259L314.68 14.4538V19.2589H313.286V0.360977Z" fill="white"/>
<path d="M329.859 9.86334V9.81057C329.859 4.65357 333.637 0.0368042 339.314 0.0368042C344.993 0.0368042 348.716 4.59945 348.716 9.75524C348.734 9.77368 348.734 9.79213 348.716 9.81057C348.716 14.9665 344.94 19.5833 339.261 19.5833C333.583 19.5833 329.859 15.0205 329.859 9.86334ZM347.27 9.86334V9.81057C347.27 5.13982 343.895 1.30595 339.261 1.30595C334.628 1.30595 331.307 5.08449 331.307 9.75524V9.81057C331.307 14.4815 334.682 18.314 339.314 18.314C343.949 18.314 347.27 14.5341 347.27 9.86334Z" fill="white"/>
<path d="M356.775 1.65657H350.24V0.360977H364.705V1.65657H358.169V19.2589H356.775V1.65657Z" fill="white"/>
<path d="M373.243 0.226547H374.582L383.314 19.2589H381.788L379.405 13.9674H368.342L365.957 19.2589H364.511L373.243 0.226547ZM378.815 12.6996L373.887 1.76452L368.931 12.6996H378.815Z" fill="white"/>
<path d="M165.918 38.7739L166.829 37.7194C168.891 39.637 170.793 40.528 173.552 40.528C176.364 40.528 178.293 38.9346 178.293 36.7758V36.7218C178.293 34.7238 177.248 33.5627 172.989 32.6981C168.489 31.7808 166.668 30.2414 166.668 27.3802V27.3262C166.668 24.519 169.212 22.3588 172.695 22.3588C175.427 22.3588 177.221 23.114 179.123 24.6534L178.239 25.7604C176.472 24.2211 174.704 23.628 172.641 23.628C169.883 23.628 168.061 25.2201 168.061 27.1918V27.2458C168.061 29.2425 169.078 30.4576 173.525 31.3762C177.864 32.2671 179.686 33.8329 179.686 36.5861V36.6414C179.686 39.6912 177.087 41.7972 173.471 41.7972C170.472 41.7972 168.168 40.7982 165.918 38.7739Z" fill="white"/>
<path d="M188.791 23.9246H182.255V22.629H196.719V23.9246H190.183V41.5269H188.791V23.9246Z" fill="white"/>
<path d="M205.393 22.4946H206.732L215.464 41.5269H213.937L211.553 36.2354H200.491L198.107 41.5269H196.661L205.393 22.4946ZM210.965 34.9676L206.036 24.0325L201.08 34.9676H210.965Z" fill="white"/>
<path d="M221.939 23.9246H215.402V22.629H229.867V23.9246H223.331V41.5269H221.939V23.9246Z" fill="white"/>
<path d="M234.122 22.629H247.462V23.9246H235.516V31.3484H246.256V32.6454H235.516V40.2315H247.595V41.5269H234.122V22.629Z" fill="white"/>
<path d="M259.268 33.6707V22.629H260.66V33.5363C260.66 37.991 263.044 40.5557 267.009 40.5557C270.812 40.5557 273.25 38.2335 273.25 33.6707V22.629H274.642V33.5086C274.642 38.9346 271.508 41.8236 266.955 41.8236C262.456 41.8236 259.268 38.9622 259.268 33.6707Z" fill="white"/>
<path d="M279.434 22.629H280.746L293.683 39.0703V22.629H295.022V41.5269H293.978L280.774 24.735V41.5269H279.434V22.629Z" fill="white"/>
<path d="M299.973 22.629H301.365V41.5269H299.973V22.629Z" fill="white"/>
<path d="M305.248 22.629H306.801L314.141 40.0153L321.506 22.629H322.98L314.73 41.6627H313.497L305.248 22.629Z" fill="white"/>
<path d="M326.671 22.629H340.011V23.9246H328.065V31.3484H338.805V32.6454H328.065V40.2315H340.144V41.5269H326.671V22.629Z" fill="white"/>
<path d="M344.346 22.629H352.221C354.524 22.629 356.373 23.3578 357.497 24.4926C358.381 25.3835 358.918 26.6514 358.918 28.001V28.0563C358.918 31.214 356.587 33.0223 353.427 33.4546L359.613 41.5269H357.845L351.872 33.6971H345.74V41.5269H344.346V22.629ZM352.061 32.4292C355.195 32.4292 357.525 30.8357 357.525 28.1089V28.0563C357.525 25.5179 355.543 23.9246 352.14 23.9246H345.74V32.4292H352.061Z" fill="white"/>
<path d="M362.234 38.7739L363.144 37.7194C365.206 39.637 367.109 40.528 369.868 40.528C372.679 40.528 374.608 38.9346 374.608 36.7758V36.7218C374.608 34.7238 373.563 33.5627 369.305 32.6981C364.805 31.7808 362.984 30.2414 362.984 27.3802V27.3262C362.984 24.519 365.528 22.3588 369.01 22.3588C371.743 22.3588 373.537 23.114 375.438 24.6534L374.554 25.7604C372.787 24.2211 371.019 23.628 368.957 23.628C366.198 23.628 364.376 25.2201 364.376 27.1918V27.2458C364.376 29.2425 365.395 30.4576 369.841 31.3762C374.18 32.2671 376.002 33.8329 376.002 36.5861V36.6414C376.002 39.6912 373.404 41.7972 369.787 41.7972C366.787 41.7972 364.483 40.7982 362.234 38.7739Z" fill="white"/>
<path d="M380.498 22.629H381.89V41.5269H380.498V22.629Z" fill="white"/>
<path d="M392.576 23.9246H386.041V22.629H400.505V23.9246H393.97V41.5269H392.576V23.9246Z" fill="white"/>
<path d="M410.572 34.0489L402.536 22.629H404.277L411.295 32.7798L418.339 22.629H420L411.965 34.0213V41.5269H410.572V34.0489Z" fill="white"/>
</g>
<defs>
<clipPath id="clip0_3575_633">
<rect width="420" height="42.6562" fill="white"/>
</clipPath>
</defs>
</svg>
